<svg width="30" height="30" viewBox="0 0 30 30" fill="none" xmlns="http://www.w3.org/2000/svg">
<path d="M29.1921 13.0479L16.9511 0.808942C16.4332 0.290984 15.7307 0 14.9981 0C14.2656 0 13.5631 0.290984 13.0451 0.808942L0.812149 13.0389L0.798149 13.0519C0.422361 13.4318 0.164877 13.9126 0.0569293 14.4359C-0.0510188 14.9592 -0.00479247 15.5026 0.190001 16.0002C0.384795 16.4978 0.719785 16.9281 1.15434 17.2391C1.58889 17.55 2.10434 17.7282 2.63815 17.7519H3.21115V26.7579C3.21036 27.1832 3.29338 27.6043 3.45546 27.9975C3.61755 28.3906 3.85552 28.7479 4.15577 29.049C4.45602 29.35 4.81266 29.589 5.20532 29.7522C5.59797 29.9154 6.01894 29.9995 6.44415 29.9999H11.2321C11.4653 29.9999 11.6889 29.9073 11.8537 29.7425C12.0185 29.5776 12.1111 29.3541 12.1111 29.1209V22.0599C12.1114 21.6688 12.2669 21.2938 12.5435 21.0173C12.82 20.7407 13.195 20.5852 13.5861 20.5849H16.4101C16.8013 20.5852 17.1763 20.7407 17.4528 21.0173C17.7294 21.2938 17.8849 21.6688 17.8851 22.0599V29.1199C17.8851 29.2354 17.9079 29.3497 17.9521 29.4563C17.9962 29.563 18.061 29.6599 18.1426 29.7415C18.2242 29.8231 18.3211 29.8879 18.4278 29.932C18.5344 29.9762 18.6487 29.9989 18.7641 29.9989H23.5521C24.4092 29.9981 25.2309 29.6574 25.837 29.0515C26.4431 28.4456 26.7841 27.624 26.7851 26.7669V17.7609H27.2371C27.7834 17.7611 28.3174 17.5993 28.7717 17.2961C29.226 16.9928 29.5801 16.5616 29.7894 16.057C29.9986 15.5525 30.0536 14.9972 29.9473 14.4614C29.841 13.9256 29.5782 13.4334 29.1921 13.0469V13.0479Z" fill="#FB8C46"/>
</svg>
